<svg width="177" height="205" viewBox="0 0 177 205" fill="none" xmlns="http://www.w3.org/2000/svg">
<g filter="url(#filter0_d_3116_13)">
<circle cx="69.5" cy="117.5" r="62.5" fill="#C4C4C4"/>
<circle cx="69.5" cy="117.5" r="62.5" fill="url(#paint0_linear_3116_13)"/>
</g>
<g filter="url(#filter1_d_3116_13)">
<circle cx="131.5" cy="140.5" r="22.5" fill="white"/>
</g>
<circle cx="2.06897" cy="2.06897" r="2.06897" transform="matrix(-1 0 0 1 74.1379 91)" fill="white"/>
<circle cx="2.06897" cy="2.06897" r="2.06897" transform="matrix(-1 0 0 1 74.1379 78)" fill="white"/>
<circle cx="2.06897" cy="2.06897" r="2.06897" transform="matrix(-1 0 0 1 74.1379 65)" fill="white"/>
<circle cx="2.06897" cy="2.06897" r="2.06897" transform="matrix(-1 0 0 1 74.1379 52)" fill="white"/>
<circle cx="2.06897" cy="2.06897" r="2.06897" transform="matrix(-1 0 0 1 74.1379 39)" fill="white"/>
<circle cx="2.06897" cy="2.06897" r="2.06897" transform="matrix(-1 0 0 1 74.1379 26)" fill="white"/>
<circle cx="2.06897" cy="2.06897" r="2.06897" transform="matrix(-1 0 0 1 74.1379 13)" fill="white"/>
<circle cx="2.06897" cy="2.06897" r="2.06897" transform="matrix(-1 0 0 1 74.1379 0)" fill="white"/>
<circle cx="2.06897" cy="2.06897" r="2.06897" transform="matrix(-1 0 0 1 87.1379 91)" fill="white"/>
<circle cx="2.06897" cy="2.06897" r="2.06897" transform="matrix(-1 0 0 1 87.1379 78)" fill="white"/>
<circle cx="2.06897" cy="2.06897" r="2.06897" transform="matrix(-1 0 0 1 87.1379 65)" fill="white"/>
<circle cx="2.06897" cy="2.06897" r="2.06897" transform="matrix(-1 0 0 1 87.1379 52)" fill="white"/>
<circle cx="2.06897" cy="2.06897" r="2.06897" transform="matrix(-1 0 0 1 87.1379 39)" fill="white"/>
<circle cx="2.06897" cy="2.06897" r="2.06897" transform="matrix(-1 0 0 1 87.1379 26)" fill="white"/>
<circle cx="2.06897" cy="2.06897" r="2.06897" transform="matrix(-1 0 0 1 87.1379 13)" fill="white"/>
<circle cx="2.06897" cy="2.06897" r="2.06897" transform="matrix(-1 0 0 1 87.1379 0)" fill="white"/>
<circle cx="2.06897" cy="2.06897" r="2.06897" transform="matrix(-1 0 0 1 100.138 91)" fill="white"/>
<circle cx="2.06897" cy="2.06897" r="2.06897" transform="matrix(-1 0 0 1 100.138 78)" fill="white"/>
<circle cx="2.06897" cy="2.06897" r="2.06897" transform="matrix(-1 0 0 1 100.138 65)" fill="white"/>
<circle cx="2.06897" cy="2.06897" r="2.06897" transform="matrix(-1 0 0 1 100.138 52)" fill="white"/>
<circle cx="2.06897" cy="2.06897" r="2.06897" transform="matrix(-1 0 0 1 100.138 39)" fill="white"/>
<circle cx="2.06897" cy="2.06897" r="2.06897" transform="matrix(-1 0 0 1 100.138 26)" fill="white"/>
<circle cx="2.06897" cy="2.06897" r="2.06897" transform="matrix(-1 0 0 1 100.138 13)" fill="white"/>
<circle cx="2.06897" cy="2.06897" r="2.06897" transform="matrix(-1 0 0 1 100.138 0)" fill="white"/>
<circle cx="2.06897" cy="2.06897" r="2.06897" transform="matrix(-1 0 0 1 113.138 91)" fill="white"/>
<circle cx="2.06897" cy="2.06897" r="2.06897" transform="matrix(-1 0 0 1 113.138 78)" fill="white"/>
<circle cx="2.06897" cy="2.06897" r="2.06897" transform="matrix(-1 0 0 1 113.138 65)" fill="white"/>
<circle cx="2.06897" cy="2.06897" r="2.06897" transform="matrix(-1 0 0 1 113.138 52)" fill="white"/>
<circle cx="2.06897" cy="2.06897" r="2.06897" transform="matrix(-1 0 0 1 113.138 39)" fill="white"/>
<circle cx="2.06897" cy="2.06897" r="2.06897" transform="matrix(-1 0 0 1 113.138 26)" fill="white"/>
<circle cx="2.06897" cy="2.06897" r="2.06897" transform="matrix(-1 0 0 1 113.138 13)" fill="white"/>
<circle cx="2.06897" cy="2.06897" r="2.06897" transform="matrix(-1 0 0 1 113.138 0)" fill="white"/>
<circle cx="2.06897" cy="2.06897" r="2.06897" transform="matrix(-1 0 0 1 126.138 91)" fill="white"/>
<circle cx="2.06897" cy="2.06897" r="2.06897" transform="matrix(-1 0 0 1 126.138 78)" fill="white"/>
<circle cx="2.06897" cy="2.06897" r="2.06897" transform="matrix(-1 0 0 1 126.138 65)" fill="white"/>
<circle cx="2.06897" cy="2.06897" r="2.06897" transform="matrix(-1 0 0 1 126.138 52)" fill="white"/>
<circle cx="2.06897" cy="2.06897" r="2.06897" transform="matrix(-1 0 0 1 126.138 39)" fill="white"/>
<circle cx="2.06897" cy="2.06897" r="2.06897" transform="matrix(-1 0 0 1 126.138 26)" fill="white"/>
<circle cx="2.06897" cy="2.06897" r="2.06897" transform="matrix(-1 0 0 1 126.138 13)" fill="white"/>
<circle cx="2.06897" cy="2.06897" r="2.06897" transform="matrix(-1 0 0 1 126.138 0)" fill="white"/>
<circle cx="2.06897" cy="2.06897" r="2.06897" transform="matrix(-1 0 0 1 139.138 91)" fill="white"/>
<circle cx="2.06897" cy="2.06897" r="2.06897" transform="matrix(-1 0 0 1 139.138 78)" fill="white"/>
<circle cx="2.06897" cy="2.06897" r="2.06897" transform="matrix(-1 0 0 1 139.138 65)" fill="white"/>
<circle cx="2.06897" cy="2.06897" r="2.06897" transform="matrix(-1 0 0 1 139.138 52)" fill="white"/>
<circle cx="2.06897" cy="2.06897" r="2.06897" transform="matrix(-1 0 0 1 139.138 39)" fill="white"/>
<circle cx="2.06897" cy="2.06897" r="2.06897" transform="matrix(-1 0 0 1 139.138 26)" fill="white"/>
<circle cx="2.06897" cy="2.06897" r="2.06897" transform="matrix(-1 0 0 1 139.138 13)" fill="white"/>
<circle cx="2.06897" cy="2.06897" r="2.06897" transform="matrix(-1 0 0 1 139.138 0)" fill="white"/>
<defs>
<filter id="filter0_d_3116_13" x="0" y="50" width="155" height="155" filterUnits="userSpaceOnUse" color-interpolation-filters="sRGB">
<feFlood flood-opacity="0" result="BackgroundImageFix"/>
<feColorMatrix in="SourceAlpha" type="matrix" values="0 0 0 0 0 0 0 0 0 0 0 0 0 0 0 0 0 0 127 0" result="hardAlpha"/>
<feOffset dx="8" dy="10"/>
<feGaussianBlur stdDeviation="7.5"/>
<feColorMatrix type="matrix" values="0 0 0 0 0 0 0 0 0 0 0 0 0 0 0 0 0 0 0.1 0"/>
<feBlend mode="normal" in2="BackgroundImageFix" result="effect1_dropShadow_3116_13"/>
<feBlend mode="normal" in="SourceGraphic" in2="effect1_dropShadow_3116_13" result="shape"/>
</filter>
<filter id="filter1_d_3116_13" x="102" y="113" width="75" height="75" filterUnits="userSpaceOnUse" color-interpolation-filters="sRGB">
<feFlood flood-opacity="0" result="BackgroundImageFix"/>
<feColorMatrix in="SourceAlpha" type="matrix" values="0 0 0 0 0 0 0 0 0 0 0 0 0 0 0 0 0 0 127 0" result="hardAlpha"/>
<feOffset dx="8" dy="10"/>
<feGaussianBlur stdDeviation="7.5"/>
<feColorMatrix type="matrix" values="0 0 0 0 0 0 0 0 0 0 0 0 0 0 0 0 0 0 0.1 0"/>
<feBlend mode="normal" in2="BackgroundImageFix" result="effect1_dropShadow_3116_13"/>
<feBlend mode="normal" in="SourceGraphic" in2="effect1_dropShadow_3116_13" result="shape"/>
</filter>
<linearGradient id="paint0_linear_3116_13" x1="132" y1="116.364" x2="7" y2="116.364" gradientUnits="userSpaceOnUse">
<stop stop-color="#FCFB4F"/>
<stop offset="1" stop-color="#FD9F13"/>
</linearGradient>
</defs>
</svg>
