<svg width="847" height="145" viewBox="0 0 847 145" fill="none" xmlns="http://www.w3.org/2000/svg">
<path d="M460.049 144.162L447.364 128.092L451.558 124.869L456.862 128.145L460.049 144.162Z" fill="#000F33"/>
<path d="M390.682 144.161L378 128.092L394.328 125.527L392.026 141.596L390.682 144.161Z" fill="#000F33"/>
<path d="M521.389 22.0687L478.131 82.9266L505.492 144.161H460.049L442.135 102.424H437.532L432.001 144.161H390.682L406.854 22.0687H448.174L442.687 63.4714H447.695L475.2 22.0687H521.389ZM471.816 83.1151L511.487 27.3043H477.76L450.256 68.7069H437.014L442.495 27.3043H411.142L396.361 138.926H427.714L433.76 93.2558L445.312 97.1882L463.221 138.926H496.827L471.816 83.1151Z" fill="#000F33"/>
<path d="M448.173 22.069L435.489 6.00271L431.33 23.2559L445.473 24.6344L448.173 22.069Z" fill="#000F33"/>
<path d="M514.156 24.2735L471.816 83.1154L496.827 138.926H463.221L455.258 128.145L445.312 97.1885H433.24L427.714 138.926H396.361L388.996 128.145L433.284 15.1528L442.495 27.3045L437.014 68.7072H450.256L477.761 27.3045L503.407 10.2996L514.156 24.2735Z" fill="#F50276"/>
<path d="M380.837 125.474L396.313 8.62H432.651L427.168 50.0195H436.292L463.798 8.62H503.754L462.575 66.5465L488.907 125.474H448.951L431.039 83.7406H422.702L417.175 125.474L380.837 125.474Z" fill="url(#paint0_linear_908_7)"/>
<path d="M492.807 128.092H447.365L429.453 86.3583H424.847L419.32 128.092H378L394.168 6.00271H435.489L430.006 47.4022H435.013L462.518 6.00271H508.705L465.445 66.8575L492.807 128.092ZM450.539 122.856H485.008L459.707 66.236L498.803 11.2382H465.077L437.571 52.6378H424.33L429.813 11.2382H398.457L383.676 122.856H415.031L420.558 81.1227H432.627L450.539 122.856Z" fill="#000F33"/>
<path d="M433.24 97.1884L434.044 89.9214L437.497 100.196L433.92 101.309L433.24 97.1884Z" fill="#000F33"/>
<path d="M429.273 15.3184L401.728 15.1525L386.896 122.856H383.676L398.457 11.2379H429.813L429.273 15.3184Z" fill="#FCFB4F"/>
<path d="M437.571 52.6374L468.579 15.3184L496.02 15.1525L498.803 11.2379H465.077L437.571 52.6374Z" fill="#FCFB4F"/>
<path d="M424.33 52.6374L423.765 56.5882H439.306L468.579 15.3185L461.172 17.1164L437.571 52.6374H424.33Z" fill="#FCFB4F"/>
<path d="M514.156 24.2735L504.482 11.7329L508.423 6L521.322 22.1237L514.156 24.2735Z" fill="#000F33"/>
<path d="M123.136 37.2867C131.513 47.5117 134.893 62.4749 132.648 79.4171C127.911 115.165 102.296 138.265 67.3808 138.265C50.0539 138.265 36.368 132.736 27.8032 122.28C19.4259 112.055 16.0513 97.0923 18.2961 80.15C23.0275 44.4018 48.6478 21.3026 83.5631 21.3026C100.89 21.3026 114.576 26.8313 123.136 37.2867ZM100.254 80.15C101.482 70.8622 99.8885 63.2131 95.6406 58.0299C91.8516 53.4017 86.0743 50.9567 78.9403 50.9567C63.8385 50.9567 53.0141 61.8623 50.6903 79.4171C49.4619 88.7049 51.0554 96.354 55.3033 101.537C59.0923 106.165 64.8647 108.61 71.9987 108.61C87.1005 108.61 97.9249 97.7048 100.254 80.15Z" fill="#F50276"/>
<path d="M126.861 33.8469C136.19 45.2342 139.979 61.6791 137.532 80.15C135.159 98.087 127.744 113.542 116.101 124.846C103.525 137.05 86.6763 143.5 67.3809 143.5C48.5838 143.5 33.6102 137.348 24.0834 125.72C14.7539 114.333 10.9649 97.888 13.407 79.4171C15.785 61.4801 23.1953 46.0248 34.8436 34.7213C47.4145 22.5173 64.2629 16.0671 83.5632 16.0671C102.36 16.0671 117.334 22.2188 126.861 33.8469ZM132.648 79.4171C134.893 62.4749 131.513 47.5117 123.136 37.2867C114.576 26.8313 100.89 21.3026 83.5632 21.3026C48.6479 21.3026 23.0276 44.4018 18.2962 80.15C16.0514 97.0922 19.426 112.055 27.8033 122.28C36.3681 132.736 50.054 138.264 67.3809 138.264C102.296 138.264 127.912 115.165 132.648 79.4171Z" fill="#000F33"/>
<path d="M95.6407 58.03C99.8886 63.2132 101.482 70.8623 100.254 80.1501C97.925 97.7049 87.1006 108.611 71.9988 108.611C64.8648 108.611 59.0924 106.166 55.3034 101.537C51.0555 96.3541 49.462 88.705 50.6905 79.4172C53.0142 61.8624 63.8386 50.9568 78.9404 50.9568C86.0744 50.9568 91.8517 53.4018 95.6407 58.03ZM95.3644 79.4172C96.3906 71.679 95.1967 65.4697 91.9158 61.4645C89.0494 57.9672 84.6881 56.1923 78.9404 56.1923C66.2955 56.1923 57.563 65.1451 55.5747 80.1501C54.5535 87.8882 55.7425 94.0976 59.0233 98.1028C61.8898 101.6 66.256 103.375 71.9988 103.375C84.6437 103.375 93.3811 94.4222 95.3644 79.4172Z" fill="#000F33"/>
<path d="M70.8797 2.61727C110.521 2.61727 126.851 30.1609 122.408 63.715C117.964 97.269 94.3381 124.813 54.6964 124.813C15.0548 124.813 -1.27554 97.2695 3.16818 63.7155C7.61189 30.1614 31.238 2.61727 70.8797 2.61727ZM66.2589 37.5064C52.1009 37.5064 42.5721 47.6895 40.4496 63.7155C38.3272 79.7415 45.1588 89.9246 59.3168 89.9246C73.4738 89.9246 83.0026 79.7415 85.1251 63.7155C87.2475 47.6895 80.4159 37.5064 66.2589 37.5064Z" fill="url(#paint1_linear_908_7)"/>
<path d="M70.8797 2.61727C110.521 2.61727 126.851 30.1609 122.408 63.715C117.964 97.269 94.3381 124.813 54.6964 124.813C15.0548 124.813 -1.27554 97.2695 3.16818 63.7155C7.61189 30.1614 31.238 2.61727 70.8797 2.61727ZM66.2589 37.5064C52.1009 37.5064 42.5721 47.6895 40.4496 63.7155C38.3272 79.7415 45.1588 89.9246 59.3168 89.9246C73.4738 89.9246 83.0026 79.7415 85.1251 63.7155C87.2475 47.6895 80.4159 37.5064 66.2589 37.5064Z" fill="url(#paint2_linear_908_7)"/>
<path d="M114.178 17.7811L126.147 33.0129L119.075 30.9187L114.178 17.7811Z" fill="#000F33"/>
<path d="M9.70834 107.448L23.3202 124.76L21.8831 113.989L9.70834 107.448Z" fill="#000F33"/>
<path d="M61.1955 5.85258C61.1955 5.85258 16.8288 24.7272 11.1936 65.1246C6.32366 100.035 21.125 108.602 27.2896 116.105L13.8326 108.611L4.08478 88.8312V58.2069L11.2972 37.5072L20.682 23.8634L32.6401 13.4797L46.7158 6.83529L61.1955 5.85258Z" fill="#FCFB4F"/>
<path d="M49.3431 90.5778C49.3431 90.5778 72.9461 100.857 84.1701 85.4119C95.3941 69.9671 92.6263 48.6406 80.6825 39.6454C74.2732 34.8183 83.0393 49.4176 83.0393 49.4176L85.5051 61.852L83.0393 69.4435L79.2581 79.7837L70.0051 84.7344L68.1358 87.8988L57.2818 89.8621L49.3431 90.5778Z" fill="#FCFB4F"/>
<path d="M54.6958 127.431C35.8987 127.431 20.9266 121.283 11.3973 109.65C2.06932 98.2627 -1.72118 81.8205 0.724909 63.3511C3.10045 45.412 10.5127 29.9551 22.1591 18.6521C34.7324 6.44966 51.5798 0 70.8786 0C89.6758 0 104.648 6.14862 114.177 17.7815C123.505 29.1688 127.296 45.611 124.85 64.0804C122.474 82.0194 115.062 97.4763 103.415 108.779C90.8421 120.982 73.9952 127.431 54.6958 127.431ZM70.8791 5.23554C35.9638 5.23554 10.345 28.3332 5.61068 64.0804C3.36687 81.0252 6.74443 95.9889 15.1207 106.215C23.6845 116.67 37.3699 122.196 54.6958 122.196C89.6111 122.196 115.23 99.0983 119.964 63.3511C122.209 46.4062 118.831 31.4426 110.454 21.216C101.89 10.7617 88.205 5.23554 70.8791 5.23554ZM59.3172 92.5423C52.1832 92.5423 46.4088 90.0968 42.6183 85.4696C38.372 80.2859 36.7769 72.6368 38.0069 63.3511C40.3321 45.7953 51.157 34.8891 66.2588 34.8891C73.3923 34.8891 79.1661 37.3346 82.9566 41.9618C87.203 47.1455 88.7981 54.7941 87.5681 64.0804C85.2424 81.6362 74.4175 92.5423 59.3172 92.5423ZM66.2588 40.1246C53.6139 40.1246 44.8789 49.0795 42.8926 64.0804C41.8679 71.8201 43.0604 78.0294 46.3417 82.0351C49.2077 85.5335 53.573 87.3068 59.3172 87.3068C71.9611 87.3068 80.6961 78.3519 82.6823 63.3511C83.7071 55.6114 82.5146 49.402 79.2332 45.3963C76.3673 41.8984 72.002 40.1246 66.2588 40.1246Z" fill="#000F33"/>
<path d="M168.464 123.24L169.304 123.12H174.464L175.304 123H176.984L178.064 123.12L179.864 123L181.184 123.12L182.624 122.88L183.104 122.16V120.84L183.224 120L183.464 119.28L183.704 117.48L184.184 116.16L184.424 114.84L184.544 113.4L185.024 111.96L185.264 110.4L185.504 108.72L185.744 108.12L185.864 106.56L185.984 105.6L185.864 104.76L186.344 103.2L186.464 102.36L186.824 100.8L186.944 100.08L187.424 98.64L187.304 97.8L187.424 97.08L187.664 95.4L188.024 94.56V92.88L188.384 90.36L188.984 88.68L189.344 87.12L189.584 85.68V84.12L190.064 83.16L190.304 81.48V80.64L190.784 78.96V77.28L191.024 75.6L191.144 74.88L191.624 72.36L191.864 71.28L191.984 70.44L192.344 69.6L192.704 68.04V67.32L193.064 65.88V65.28L193.304 63.72L193.544 62.76V61.92L193.664 61.2L193.904 60.36L194.144 59.28L194.264 59.04V58.8L194.504 57.96L194.864 55.8L194.744 55.08L195.344 53.52V52.68L195.584 51.72L195.704 50.88L196.064 49.08L196.184 48.12L196.304 47.28L196.664 45.6L196.784 43.8L197.384 42.12L197.264 41.16L197.504 40.56L197.144 39.24L196.064 39H195.104L190.664 39.12H189.584L188.744 39H186.464L185.624 38.88L183.344 39L181.664 39.12L180.704 39.84L180.224 43.68L179.504 47.28L178.904 49.8L178.784 52.2L178.184 55.2L178.064 56.04L177.944 57.24L177.824 58.56L177.704 59.52L177.344 61.68L176.984 63.36L176.624 66L176.384 67.32L176.264 68.28L175.904 69.96L175.664 71.4L175.424 72.96L174.824 75.36H174.704L171.824 75.48L169.304 75.24L167.624 74.88L166.304 74.16L165.344 73.08L164.864 71.64L164.624 69.84L164.744 67.68L164.864 66.36L165.224 64.32L165.464 63L165.704 61.2V60.36L166.064 59.28L166.184 57.96L166.544 55.8L166.424 55.08L167.024 53.52V52.68L167.264 51.72V50.88L167.624 49.08L167.744 48.12L167.864 47.28L168.344 45.6L168.464 43.8L168.824 42.12L168.704 41.16L168.944 40.56L168.584 39.24L167.504 39H166.544L162.824 39.12H161.744L160.904 39H158.504L157.664 38.88L155.384 39L153.704 39.12L152.744 39.84L152.624 41.64L152.144 43.68L151.784 45.36L151.304 47.28L150.704 49.8L150.584 52.2L150.104 54.12L149.984 54.96L150.104 55.92L149.384 58.56L149.264 59.52L148.904 61.32L148.784 62.88L148.664 63.6L148.544 65.16L148.424 66V67.32L148.304 68.64V71.04L148.184 72.84L148.064 74.04L148.544 76.32L148.664 77.16L148.784 78.48L149.264 79.8L149.504 80.64L150.224 82.2L150.584 83.16L151.304 84L152.264 84.96L152.624 85.56L153.824 86.52L155.384 87.36L156.224 87.72L157.064 88.32L157.904 88.56L159.704 88.92L163.544 89.52H164.504L166.304 89.76H167.984L169.544 89.88L170.624 89.76H172.184L171.944 91.44L171.344 93.96L170.984 96.12L170.624 97.56L170.384 99.12V99.96L170.144 101.4L170.024 102.24L169.784 103.68L169.544 104.4L169.304 105.72L168.824 108.12L168.704 109.32L168.464 110.4L168.344 111.12V112.08L167.864 113.16L167.744 114.84L167.504 115.44L167.384 116.52L167.144 117V117.72L167.024 119.04L166.784 119.4V120.96L166.664 121.68L167.144 122.88L168.464 123.24ZM210.819 123.12L211.779 123L213.699 122.88H216.219L216.939 122.76L218.499 122.88L220.419 122.76H231.819L232.179 121.44L232.419 120.36L232.539 118.32L232.899 116.52L233.019 115.68L233.259 114.96L233.499 114.12V112.56L233.979 109.92L234.099 108.96L234.339 107.64L234.459 107.16L234.579 106.2L233.739 105.84L230.379 105.96L227.739 105.84L226.059 105.72H218.979L217.299 105.48L216.819 105V104.04L217.299 100.92L217.659 98.76L217.899 97.92L218.019 96.72L218.259 95.64L218.619 94.44L219.099 91.08L219.459 89.52L219.939 88.2H221.019L222.579 88.08H223.899L225.939 88.2L228.939 88.08H230.019L231.819 87.96H233.019L233.259 87.72L233.499 86.04L233.859 84.12L234.099 82.44L234.459 81.48V80.64L234.819 78.84L235.059 78L235.419 76.32L235.659 75V74.04L235.899 72.6L235.179 71.64L234.219 71.4H231.099L228.819 71.64L224.619 71.52H222.459L222.699 69.36L223.059 68.16L222.939 67.2L223.179 66.36L223.539 64.68L223.779 63L224.139 60.72V59.76L224.499 59.04V57.36L224.619 56.52L224.979 55.08L227.859 54.96H235.659L237.099 54.84H242.139L243.339 54.72L243.699 53.16L243.819 52.44L244.299 50.76V49.8L244.659 48L244.779 47.28L244.899 46.44L245.259 45.6V44.88L245.499 41.88V41.16L245.859 39.84L245.259 39L244.179 38.88L242.979 38.76L241.899 38.88H239.259L235.779 39L234.819 38.88L232.059 38.76L223.059 38.88L220.419 39H219.219L218.259 38.88H217.419L215.979 39L215.139 38.88L214.419 39H212.379L211.419 39.72L211.299 40.44L210.939 41.16L210.579 42.6L210.819 43.44L210.699 44.16L210.579 45.72L210.459 46.44L210.219 47.16L210.099 48.72L209.859 49.56L209.979 50.28L209.619 51.12V51.96L209.259 52.68L209.019 54.36L208.539 55.92L208.419 56.76L208.539 57.48L208.419 58.32L208.179 59.28L207.699 60L207.579 62.52L207.219 63.36L207.099 66.72L206.619 68.52L206.259 70.2L206.379 70.92L206.139 71.76L205.779 72.72L205.059 76.32L204.579 77.04V77.88L204.459 78.72L204.339 79.68L203.979 80.52L203.739 82.32L203.259 84V85.8L202.779 88.32L202.539 89.16L202.179 90.96L202.059 91.8L201.699 92.64L201.339 94.2L201.459 94.92L200.979 96.36V96.96L200.739 98.52L200.499 99.48V100.32L200.259 102.24L199.779 103.2L199.539 104.76L199.419 106.44L199.299 107.28L199.059 108.24V109.08L198.819 109.92V111L198.459 111.96L198.339 113.88L197.859 115.68L197.619 117.6L197.379 119.4L197.139 120.48L196.779 121.56L197.139 122.64L198.219 122.88H204.579L205.419 123H208.539L210.819 123.12ZM279.213 123.24L280.173 123.12H282.573L284.133 123L284.853 122.88H286.653L288.093 122.52L288.573 121.8L288.813 120.96V120L289.053 119.16L289.173 118.2L289.533 117.6L289.773 116.16L289.893 114.84L290.133 114L290.373 112.44L290.493 111.6L290.853 109.92L290.973 108L291.093 106.32L291.333 105.6L291.693 104.28L292.053 102.6L292.173 101.76V100.8L292.533 99.12L292.653 98.28L292.893 97.56L293.133 96.72L293.013 96L293.733 93.48L293.613 92.76L293.853 91.92L294.213 90.24L294.453 88.92V88.2L294.933 86.04L295.053 85.2L295.653 83.64L295.773 82.8V81.24L295.893 80.4L296.253 79.68L296.013 78.84V77.88L296.493 77.16L296.613 76.32L296.973 74.64L297.093 73.92L297.213 72.12L297.813 70.44L297.933 68.64L298.173 66.72L298.413 65.16L298.533 64.44L299.133 63L299.253 62.28L299.493 60.72L299.613 59.76L299.853 58.92L299.973 58.08L300.333 56.52L300.453 55.68L300.693 54.12V53.28L300.813 51.72L301.053 50.76L301.293 49.92L301.413 49.08V48.12L301.533 46.44L302.013 45V44.16L302.133 43.44L302.013 42.96L302.493 42.24L302.373 41.4L302.493 40.68L301.653 39.6L300.813 39.24L298.893 39H295.533L293.133 38.88H288.813L287.733 39L287.013 39.12L286.053 40.2L285.933 40.92L286.053 41.76L285.813 42.6L285.333 43.68L285.213 44.4L284.973 45.96L284.733 46.68L284.373 48.24V49.2L283.893 50.88L283.773 51.72L283.893 52.68V54.12L283.413 55.2L283.293 56.76L282.933 58.32V59.16L282.693 59.88L282.573 60.72L282.453 61.68L282.333 62.52L282.213 63.24L281.613 64.8L281.853 65.52L281.253 67.32L281.133 68.16V69L280.653 70.08L280.413 71.4L280.293 72L277.773 71.88L276.813 72L275.373 71.88L274.413 72L270.933 71.88H269.973L269.133 71.76L269.373 70.8L269.493 70.08L269.733 69.12L269.613 68.4L269.853 67.56L270.213 66L270.093 65.16L270.453 64.44L270.573 63.6L270.813 62.64L271.053 62.04V61.32L271.173 59.88L271.413 59.28L271.533 57.72L271.773 56.76L272.013 55.92V54L272.373 53.16L272.493 51.72L272.733 50.04L273.213 47.76L273.333 46.68L273.693 45.6L273.813 43.92L273.933 43.2L274.293 41.76L274.173 40.92V40.2L273.933 39.12L272.733 38.88L271.293 38.64L270.093 39H267.453L265.773 38.88L260.853 39H257.853L256.773 39.6L256.653 40.92L256.533 42.36L256.173 43.92L255.933 44.76L256.053 45.72L255.693 46.56L255.573 47.4L255.333 48.24L255.453 49.92L254.613 51.48V54L254.253 55.56L254.133 56.28L254.013 57.24L253.533 58.2V59.88L253.413 60.48L253.053 63L252.813 63.96L252.573 65.52L252.093 68.04L251.973 69.72L251.853 70.56L251.133 72.24L251.013 73.92L250.773 75.6L250.653 76.32L250.053 79.8L249.573 81.48V82.44L249.213 83.4L248.853 84.24L248.613 86.04V86.88L248.373 88.32L248.013 89.52L247.893 91.08L247.413 92.76L247.533 93.6L247.293 94.56L247.173 95.28L246.933 96L246.333 100.2L246.093 101.16L245.733 102.84V103.8L245.613 104.64L245.133 105.72L244.653 106.56L244.773 108.24L244.293 109.92L244.413 110.88L244.173 111.72L243.453 113.04L243.693 113.88L243.453 114.6V115.44L243.213 116.52L243.093 117.72L242.493 119.28L242.013 120.36V121.32L242.493 122.64L244.893 122.88H248.733L250.173 123.12L251.013 122.88L251.853 122.76L252.693 123.12H253.653L255.453 122.88L256.893 122.76L257.973 122.64L258.933 122.16L259.533 120.96L259.773 119.16L259.893 118.32L260.133 117.36L260.373 115.68V114.84L260.733 113.16L260.853 112.2L261.573 108.84L261.813 107.04L262.293 105.48L262.413 104.88L263.013 103.44L262.893 102.72L263.613 100.08L264.213 97.32L264.453 96.48V94.44L264.933 93.6L265.173 92.04L265.653 90.36L265.773 89.4L265.893 88.8L267.933 88.92L269.733 89.28L273.573 88.92L274.653 89.16H275.493L276.573 89.04L276.333 90.48V91.32L276.093 93L275.853 93.84L275.493 95.52V96.96L275.253 98.16L274.773 99.48L274.053 103.08L273.813 105.36L273.453 107.16L273.333 108.84L273.093 109.44L272.973 111L272.853 111.84V112.68L272.733 113.52L272.253 116.04V117.72L271.773 118.56L271.533 119.64L271.413 120.72L271.293 121.68L272.013 122.76L272.853 122.88H273.693L275.013 123H278.253L279.213 123.24ZM314.125 123.24L316.405 123.12L318.085 123H324.685L328.165 122.76L329.845 122.52L331.405 122.4L332.845 122.16L334.645 121.56L336.325 120.84L337.525 120.48L339.085 119.64L341.245 117.84L341.965 117L343.045 115.8L344.005 114.84L344.845 113.4L345.565 112.68L347.245 109.44L347.845 108.12L348.805 105.84L349.405 104.16L349.765 103.2L350.125 101.52L350.605 100.08L350.845 99.24L351.085 98.28L351.325 97.44L351.565 95.76L351.805 93.84L352.045 93L352.285 91.68V90.36L352.165 89.04V88.2L352.045 86.4V85.2L351.685 83.88L351.805 83.04L350.845 80.4L350.725 79.56L350.005 78L349.525 77.04L348.925 76.2L348.085 75.24L347.725 74.64L346.525 73.68L345.085 72.84L344.245 72.48L343.285 71.88L342.445 71.64L340.645 71.28L336.805 70.68H335.845L333.925 70.44H332.245L330.685 70.32L329.605 70.44H327.685L327.925 69.84L328.285 68.16L328.405 67.56L328.765 66L329.125 64.56L329.365 63L329.485 62.16L329.605 60.72L329.725 59.88L329.965 58.44L330.205 57.72L330.445 56.4L331.045 53.28L331.165 52.56V51.72L331.285 51V50.04L331.765 48.96L332.005 47.28L332.365 46.68V45.6L332.725 45.12L332.605 44.4L332.725 43.08L332.965 42.72V41.16L333.085 40.44L332.605 39.24L331.285 38.88L330.445 39H325.285L324.445 39.12H322.765L321.685 39L319.885 39.12L318.565 39L317.125 39.24L316.765 39.96L316.645 41.28L316.525 42.12L316.285 42.84L316.045 44.64L315.565 45.96L315.325 47.28L315.205 48.72L314.845 50.16L314.485 51.72L314.245 53.4L314.005 54L313.885 55.56L313.765 56.52L313.885 57.36L313.405 58.92L313.285 59.76L312.925 61.32L312.805 62.04L312.325 63.48L312.445 64.32L312.325 65.04L312.085 66.72L311.725 67.56V69.24L311.365 71.76L310.765 73.44L310.405 75L310.165 76.44V78L309.685 78.96L309.445 80.64V81.48L308.965 83.16V84.84L308.725 86.52L308.605 87.24L308.125 89.76L307.885 90.84L307.765 91.68L307.405 92.52L307.045 94.08L307.165 94.8L306.685 96.24V96.84L306.445 98.4L306.205 99.36V100.2L306.085 100.92L305.845 101.76L305.605 102.84L305.485 103.08L305.605 103.32L305.245 104.16L304.885 106.32L305.005 107.04L304.525 108.6L304.405 109.44L304.165 110.4L304.045 111.24L303.685 113.04L303.565 114L303.445 114.84L303.085 116.52L302.965 118.32L302.365 120L302.485 120.96L302.245 121.56L302.605 122.88L303.685 123.12H304.645L309.085 123H310.165L311.005 123.12H313.285L314.125 123.24ZM324.085 107.16L321.565 106.92L321.685 106.08V105.12L322.165 103.56L322.285 102.6L322.645 100.8L322.525 99.48L323.125 98.28V96.6L323.245 96L323.485 94.32V93.36L323.965 91.68V90.72L324.445 89.04L324.685 87.6L324.925 86.04L325.165 84.96L325.645 84.84L328.645 84.72L331.405 85.08L332.365 85.32L333.685 86.04L334.405 87.12L334.885 88.56L335.005 90.6L334.885 93.72L334.405 96.36L334.045 98.4L333.205 100.56L332.605 102L332.005 102.72L331.165 104.04L329.965 105.24L327.805 106.56L327.085 106.92L325.285 107.16H324.085Z" fill="#000F33"/>
<path d="M518.36 130.12H527.96L528.8 130L529.16 128.56L529.28 127.6L529.4 126.52L529.76 125.56L529.88 124.72L530.12 124L530.24 123.16V122.2L530.72 121.48V119.8L531.08 118V116.8L531.44 115.96L531.56 115.12L531.92 113.68L532.16 112.84L532.4 111.4L532.76 110.32L533.12 108.64V107.92L533.24 107.08L533.48 106.36L533.6 105.52L533.72 104.8L533.84 103.24L534.08 102.64L534.2 101.08L534.56 100.12L534.68 99.28V99.04L536.48 99.16H539.12L541.4 99.28L544.76 99.04L546.44 98.8L548 98.68L549.44 98.44L551.36 97.84L552.92 97.12L554.12 96.76L555.8 95.92L556.4 95.2L557.96 94L558.56 93.16L559.4 91.96L560.48 91L561.32 89.56L562.04 88.84L563.12 87.04L563.96 85.6L564.56 84.28L565.52 82L566.12 80.32L566.48 79.36L566.84 77.68L567.08 76.96L567.2 76.24L567.56 75.4L567.68 74.44L568.04 73.6L568.28 71.92L568.52 69.28L568.64 68.44L568.88 67.12L569 65.8L568.88 64.48V63.64L568.76 61.84L568.88 60.64L568.52 59.32L568.4 58.48L568.28 57.16L567.8 55.84L567.56 55L566.84 53.44L566.48 52.48L565.76 51.64L565.04 50.68L564.56 50.08L563.48 49.12L561.92 48.28L561.08 47.92L560.24 47.32L559.4 47.08L557.48 46.72L554.96 46.36L553.4 46.12H552.44L550.64 45.88H548.96L547.16 46L546.32 45.88H538.28L537.56 46L536 45.88L534.44 46H528.2L527.24 46.48L526.76 48.04L526.64 49L526.28 50.68L526.16 51.64L526.04 52.48L525.56 54.4L525.32 55.24V55.96L525.2 56.8L524.96 57.64V58.6L524.72 59.44L524.6 60.88L524.24 61.96L523.88 63.64L523.64 64.6L523.52 66.76L523.4 67.48L523.04 69.04L523.16 69.52L523.04 70.84L522.56 72.76L522.44 73.48L522.32 75.04L521.96 75.88L521.72 76.72L521.6 78.28V79.72L521.24 81.28L520.88 83.2L520.64 85L520.52 85.96L520.16 87.64L520.04 88.36L519.8 89.2L519.68 89.92L519.44 90.76L519.32 92.44L519.2 93.4L518.84 94.24L518.48 96.76L518.36 98.56L518 99.28V100.12L517.76 100.84V102.16L517.16 103.36V103.96L517.04 105.4L516.92 106.12L516.44 107.68L516.2 108.4L516.08 109.24L515.96 110.8L515.6 111.52L515.12 114.28L515 115L514.88 115.84L514.52 117.28L514.4 118.12L514.04 119.68L513.68 121.48L513.32 123.16V123.88L512.96 125.56L513.08 126.4L512.72 127.12V129.4L513.44 130L515.6 129.88L516.44 130L518.36 130.12ZM537.2 83.92L537.32 82.84L537.68 81.16V80.08L538.28 77.08L538.52 76V75.04L538.64 73.6L539 71.68L539.24 70.48L539.6 68.08L539.96 66.64L540.2 65.8L540.44 63.76L540.56 62.56L540.8 61.96L541.4 60.52L542.24 60.28L545 60.16L548.24 60.28L549.32 60.52L550.64 61.48L551.36 62.56L551.84 64V66.04L551.6 69.16L551.12 72.52L550.64 74.56L550.16 75.64L549.92 76.72L549.32 78.4L548.84 79.12L548 80.44L546.68 81.64L544.76 83.08L543.92 83.44L541.64 83.68L540.32 83.92H537.2ZM569.228 130.24L570.188 130.12L573.548 130.24L574.268 129.76L574.748 128.92L575.108 128.32L575.468 127L576.188 125.2L577.388 122.92L577.868 121.48L578.228 120.64L578.468 119.8L579.308 118.24L579.908 116.92H583.148L588.428 117.04L590.348 117.28L592.988 117.4L593.108 118.36V124L592.988 125.2L593.108 126.4L593.228 128.56L593.468 129.76L593.948 130.12H595.748L597.308 130.24L598.508 130.12L599.348 130L600.788 130.12H601.748L604.388 130H606.068L607.028 130.12L607.868 130C608.348 130 608.708 130.12 609.188 130C609.788 129.64 609.668 128.56 609.548 128.08V125.56L609.428 122.92V121.84L609.308 120.88L609.428 119.2V117.4L609.308 116.56L609.188 115V114.28L608.948 109.72L609.068 108.88L608.948 107.2L609.068 105.4L608.948 103.6V102.76L608.828 97.24V93.64L608.708 92.68L608.588 91.24V86.56L608.348 85.24L608.228 83.32V82.6L608.108 81.04L608.228 80.32L608.108 78.64V76.24L607.868 74.56V71.92L607.988 71.08L607.868 69.28V67.6L607.628 65.2L607.508 63.64V61.96L607.388 57.64V55.48L607.148 54.76V52.12L606.788 46.96L605.948 46.36L605.348 46.12H603.428L602.348 46.24L601.508 46H600.428L598.148 46.12H596.228L595.028 46.24L592.748 46.12H591.548L590.708 46.24L590.228 47.56L589.868 48.28L589.508 49.12L588.428 51.28L587.588 52.84L586.868 55L586.628 55.6L586.148 56.32L585.428 57.64L585.188 58.48L584.948 59.2L584.588 59.92L584.348 60.76L583.268 62.92L582.908 63.76L582.548 64.96L581.828 66.04L581.468 66.76L580.868 68.32L579.908 70.84L579.428 71.56L578.828 72.4L578.468 74.08L577.748 75.64L577.508 76.24L577.148 77.8L576.548 78.64L576.188 80.2L575.828 80.92L575.108 82.24L574.508 84.28L573.668 85.84L573.308 86.8L572.348 90.16L571.988 90.88L571.388 92.56L571.028 93.28L570.668 94.12L570.548 94.84L569.828 96.52L569.588 97.36L568.868 98.8L568.268 99.76L568.028 100.84L567.788 101.68L566.948 103.36L566.588 104.2L565.988 105.76L565.628 106.48L565.508 107.32L565.268 108.04L564.668 109.48L564.068 110.32L563.828 111.04L562.868 113.2L562.388 114.76L561.068 117.64L560.468 119.08L559.748 120.52L558.548 124.12L557.588 125.68L556.868 127.12L556.748 127.84L556.508 128.68L556.748 129.64L557.828 129.88L566.588 130L567.428 130.12L569.228 130.24ZM589.028 101.32L587.948 101.2L586.628 101.08H585.668L584.828 100.36L585.188 99.52L585.428 98.44L585.668 97.6L586.268 95.56L586.748 94.72L587.348 92.92L587.468 92.08L588.188 89.44L588.548 88.36L588.908 87.52L589.268 86.44L589.748 85.6L589.868 84.76L590.348 83.56L590.828 82.6L591.428 80.68L591.788 79.48L592.388 77.56L592.868 76L593.828 75.64L593.948 78.4L593.828 82.72L593.708 87.28L593.828 90.16L593.588 91.12V93.16L593.468 94V97.12L593.348 98.08L593.468 99.04L593.348 100.72L592.628 101.32H589.028ZM638.757 131.44L639.957 131.2L641.517 131.08H643.317L644.877 130.72L646.317 130.48L647.757 130.12L650.877 129.4L651.717 129.04L653.637 127.84L655.437 126.28L657.237 124.12L657.477 123.4L657.837 122.68L658.437 121.96L658.917 121.24L659.277 120.4L659.877 118.96L660.597 117.04L660.957 116.32L661.197 115.48L661.317 114.64L661.677 113.2L662.397 110.2L662.637 109.48L662.997 106.96L663.117 106.48L663.237 105.64L663.477 105.04L663.597 103.72L663.837 102.16V101.32L664.077 100.6V99.28L663.597 98.44L662.757 97.6L661.317 97.48L655.437 97.12H652.917L649.797 97L648.837 97.12L647.997 98.08L647.757 99.28L647.157 100.84L647.037 101.68L646.797 102.76L646.437 104.56L646.077 106L645.957 106.6L645.837 107.32L645.357 108.88L644.757 110.56L643.797 112.72L643.317 113.32L641.637 114.4H639.837L637.917 114.64L636.117 114.04L635.157 113.2L634.677 111.4V110.56L634.557 109.84V108.64L634.677 106.96L635.037 105.28V104.32L635.397 101.8L635.277 100.96L635.517 100.12L635.637 99.28V98.32L635.757 97.48L636.117 96.64V94.12L636.477 92.32L636.717 91.36L636.957 89.8L637.077 88.96L637.557 87.04L637.677 86.08L638.637 81.28L639.237 79.48L639.477 77.8L639.717 76.96L639.837 76.24L639.957 75.4L640.317 74.32L640.677 72.88L641.037 71.08L641.517 69.64V68.92L642.237 66.88L642.837 65.32L643.317 63.28L643.677 62.44L644.037 61.72L645.117 60.4L646.437 59.92L647.877 59.68H649.197L650.877 60.16L652.197 60.88L652.917 63.04V64.84L652.677 66.52L652.557 68.08L651.837 70.72L651.597 72.4L651.117 74.56L650.877 75.4V77.08L651.717 78.4L655.197 78.88L662.757 79L664.437 78.88L665.877 78.76L666.357 78.28L666.957 75.16L667.197 74.2L667.917 69.52L668.157 67.6L668.397 65.8L668.637 64.84L668.757 63.64V61L668.637 59.2L668.517 58.12L668.397 56.56L668.277 55.12L668.037 53.8L667.437 52.6L667.197 51.76L666.837 51.16L666.237 50.08L665.997 49.48L664.677 48.28L663.117 47.08L661.437 46.48L660.117 46.24L659.637 45.88L658.797 45.76L657.957 45.52L657.237 45.4L655.557 45.16H654.357L653.277 44.8L650.277 44.44H648.357L646.077 44.56H644.277L643.437 44.68L641.877 45.04L639.837 45.4L637.317 46.48L636.597 46.84L635.037 47.56L634.317 48.16L632.637 49.84L631.677 51.04L630.837 52.24L629.997 52.96L629.517 54.28L628.797 55.96L628.197 57.4L627.477 59.44L626.997 61.12L626.277 63.52L625.437 65.92L625.077 67.48L624.717 68.32L624.597 69.16L624.477 69.88L624.237 70.72L624.117 71.56L623.757 72.28L623.637 73.48L623.397 74.8L623.157 75.64L622.557 78.04V79.72L622.197 80.44V81.16L622.077 82.6L621.717 83.8L621.477 85.12L621.117 86.44V86.92L620.997 87.28V88.96L620.517 89.68L620.157 91.84L620.277 92.44L619.917 93.76L619.677 94.72L619.797 95.8L619.317 97.48L619.077 100L618.957 100.72V101.56L618.717 103.24L618.597 104.92L618.477 105.88L618.357 108.4V111.52L618.237 112.36V113.44L618.357 114.4V116.68L618.597 117.52L618.837 119.08L619.077 119.8L619.437 121.36L620.517 122.92L621.357 124.6L621.957 125.2L622.437 125.8L623.997 127L624.717 127.48L625.317 127.96L626.517 128.68L627.237 129.28L628.677 129.76L630.237 130.36L630.957 130.48L631.797 130.72L632.997 130.84L633.717 130.96L634.677 131.08L635.997 131.2L636.837 131.32H637.677L638.757 131.44ZM672.302 130H674.582L677.342 129.88L678.302 130L679.382 129.88L679.982 130L682.742 129.88L684.902 130L687.062 129.76L688.382 128.92L688.982 128.08L689.222 127.36L690.422 125.68L690.782 124.96L691.622 123.64L691.982 122.92L693.182 120.28L693.542 119.68L694.742 117.16L695.222 116.44L695.942 114.76L696.542 113.08L697.502 111.28L698.342 109.48L699.542 107.08L699.902 106L700.742 104.44L700.982 103.84L702.062 101.92L703.142 99.64L704.342 97.6L705.662 94.36L707.582 90.52L709.382 87.28L711.182 83.32L713.222 78.76H713.582L712.622 82.12L712.022 84.04L711.422 85.36L710.822 87.52L709.862 90.4L708.422 94.48L707.942 96.28L707.462 98.44L707.222 100L706.622 101.92L706.502 103.36L706.382 104.2L705.662 106.72L705.422 107.44L705.062 109.12L704.822 110.92L704.342 113.32L704.102 114.16L703.982 115L703.862 115.72L703.742 116.56L703.022 120.04L702.902 121.6L702.662 122.44L702.182 124L702.062 124.72L701.822 126.28L701.702 127L701.582 128.08V129.28L702.542 129.76L707.342 129.88H712.982L715.622 129.76L717.422 129.64L718.502 128.2L718.742 127.36L719.702 123.52L719.822 121.84L719.942 121L720.302 119.32L720.182 118.72L720.662 117.04L720.782 115.96L721.142 114.04L721.382 113.2L721.502 112.24L721.862 110.68L721.742 109.84L722.102 108.4L722.222 107.56L722.582 105.4L723.062 104.56L723.302 103L723.542 101.08L723.902 99.64L724.022 98.56L724.142 97.24L724.502 95.8L724.622 94.96V94.24L724.982 92.68L725.102 91.96L725.342 91.24V89.8L725.582 89.08L726.302 86.56V85.72L726.542 83.92L726.662 82.96L726.782 81.76L727.142 81.16L727.382 80.08L727.502 79.12V78.16L727.862 77.2V76.36L728.102 75.52L728.222 74.68L728.462 73.12L728.702 71.8L728.822 70.72L729.302 69.28L729.422 68.44V67.72L730.022 64.36L730.262 63.52L730.142 62.44L730.382 61.36L730.862 59.8L730.982 58.96L731.102 58.24L731.342 57.4V56.68L731.462 55.84L731.822 54.28L732.182 52.84L732.422 51.28L732.782 50.32L732.902 48.76V47.44L732.542 46.12L731.462 45.88L729.782 45.76L727.742 45.88H726.062L724.742 45.76L722.102 45.88L719.942 45.76L718.262 45.88H716.702L715.142 46.24L714.062 47.44L713.582 48.28L712.742 49.48L712.262 50.8L711.662 51.64L710.462 53.8L709.022 56.44L708.062 58.6L706.982 60.64L706.142 62.32L705.422 64.12L704.822 65.68L704.342 66.52L703.382 68.32L702.902 69.52L702.542 70.48L701.462 72.28L701.102 73.12L700.502 74.32L699.662 76.12L698.822 78.16L697.982 80.08L697.022 82.24L696.302 84.04L695.822 84.88L694.262 87.88L693.182 90.4L691.622 94L691.022 95.56L690.542 96.76L689.942 98.2L688.262 102.4H687.902L688.862 98.44L689.342 96.88L691.262 89.56L691.982 86.68L692.222 85.6L692.582 83.92L692.822 83.32L693.062 81.76L693.302 80.92V80.08L693.782 79L694.022 77.44V76.72L694.502 75.04L694.742 74.32L694.862 72.76L695.342 71.32L695.582 69.88L696.062 68.92V67.6L696.302 66.76L696.782 63.88L696.902 62.32L697.382 61.36L697.502 60.76L697.742 59.08L698.102 58.12L698.222 56.44L698.102 55.6L698.342 54.64L698.462 53.56L698.822 52.72L699.062 50.92L699.542 48.4L699.062 46.72L698.822 46.36L695.342 46.12H693.542L692.942 46H691.622L688.622 46.12H687.542L685.982 46L684.182 46.24L683.222 46.72L682.982 47.68L682.622 48.52L682.262 50.32L682.022 51.28L681.302 53.92L680.942 55.6L680.702 57.04L680.582 58.48V59.8L680.222 61.24L680.102 61.84L679.742 62.92V63.76L679.502 64.6L679.382 65.44L679.142 67.36L678.662 69.4L678.782 70.36L678.542 71.2L678.422 72.16L678.062 73.72L677.702 74.56L677.102 78.16L677.222 79.12L676.862 80.56L676.382 82.36V83.92L676.022 84.76L675.902 86.32L675.662 88L675.542 88.96L675.062 90.04V90.76L674.822 91.6L674.582 93.04L674.462 93.88L673.982 95.44L674.102 96.16L673.862 97.84V98.92L673.502 99.88L673.262 101.56L673.142 102.28L672.902 103L672.542 104.68L672.302 106.36L672.062 107.44L671.942 108.52L671.822 109.96L671.462 111.4L670.862 112.84L670.622 114.52L670.502 115.48V117.04L669.782 119.08V120.64L669.542 121.24L669.302 122.08V123.76L668.462 127.6L668.942 129.16L669.902 129.88L672.302 130ZM747.564 130.12L749.364 130H749.724L750.684 129.88H752.364L753.324 130L754.884 130.12L758.124 130L758.964 129.88L759.804 130L761.604 130.12L763.404 129.76L764.124 129.88L765.684 129.52L766.764 129.4L767.484 129.28L768.444 128.92L769.764 128.56L770.724 128.08L771.564 127.72L772.164 127.36L772.764 126.88L773.604 126.4L774.204 125.8L774.924 125.44L775.884 124.84L776.364 124.24L777.204 123.52L777.804 122.92L778.524 121.6L779.604 120.16L781.524 116.32L781.764 115.48L782.004 114.76L782.244 113.92L782.484 113.2L782.844 111.52L782.964 110.68L783.324 109.12L783.684 107.32L783.924 105.52L784.044 104.68V103.12L784.164 102.04L783.924 100.84L784.044 99.28L783.564 97.72L783.324 96.16L782.964 95.44L782.724 94.24L782.124 92.92L781.644 92.08L780.924 90.88L780.204 90.16L779.484 89.32L778.044 88.36L776.964 87.88L775.644 87.16L774.444 86.68V85.96L775.524 85.48L776.964 84.88L778.404 84.04L779.244 83.56L779.844 83.08L780.444 82.36L781.044 81.88L782.604 80.32L783.564 78.88L784.404 77.68L785.244 76.36L785.724 75.28L786.084 74.56L786.324 73.72L786.564 73L786.684 72.16L786.804 71.8L787.044 70.96L786.924 70.24L787.404 68.68L787.524 67.84L787.764 66.28V65.56L788.004 64.72L788.124 64V63.16L788.244 62.44L788.364 60.64L788.124 59.2L787.884 58.24V57.4L787.764 56.44L787.044 54.76L786.564 53.32L786.204 52.72L785.724 52L784.644 51.04L783.084 49.36L781.764 48.28L780.684 47.8L779.484 47.2L778.044 46.84L776.244 46.36L775.044 46.24L773.724 46H770.124L768.444 45.88L763.644 46L757.764 45.76H755.244L753.924 45.88L753.204 45.76H750.204L748.524 45.88L747.444 46.84L747.084 47.44L746.844 48.52L746.724 50.32L746.604 51.16V52.12L746.244 53.68L745.524 56.56L745.164 58.12L744.804 59.92L744.564 63.76L744.084 65.44L743.844 67.24L743.724 67.96L743.484 68.68V69.52L743.364 70.24L743.244 71.32L742.884 72.28L742.764 73L742.524 73.84L742.404 75.28L742.284 76.36L741.924 77.44L741.684 78.28L741.564 79.12V80.08L741.324 81.76L740.844 83.44L740.724 84.4L740.244 85.96L740.004 86.56L739.884 88.24L739.404 89.92L739.164 91.12L739.044 91.6V92.32L738.684 93.76L738.564 94.6L738.324 96.16L737.964 97.72V98.56L737.844 99.28L737.604 100.24L737.244 101.2L736.884 102.88L737.004 104.08L736.524 105.28L736.284 107.2L736.044 109L735.924 109.72L735.564 110.68L735.444 111.64L735.204 112.48L735.084 113.32L734.844 114.04L734.724 115.72L734.484 117.4L734.004 118.96L733.884 119.8L733.644 121.24L733.404 122.92L733.164 124L732.804 124.96V126.76L732.564 127.96L732.444 128.92L733.284 129.64L734.364 129.76L736.164 129.88H737.124L737.844 130H742.764L744.684 129.88H745.644L747.564 130.12ZM761.124 77.92L759.684 77.8H758.124V77.08L758.244 75.88L758.484 74.92L759.324 69.04L759.564 68.32L759.684 67.48L760.044 65.92V65.08L760.404 63.64L760.524 62.8L760.644 61.72L761.004 60.64V59.8L761.964 59.56H764.964L767.124 59.8L768.204 60.04L768.924 60.16L769.884 61L770.244 61.6L770.964 63.04L771.084 64.48L771.204 65.32L771.324 66.64L770.844 67.84L770.724 68.8L770.484 69.52L770.124 70.96L769.524 72.64L768.564 73.84L767.964 74.92L766.524 76.12L765.204 76.96L764.244 77.56L762.804 77.8L761.124 77.92ZM753.444 114.64L751.524 114.52L752.004 112.96L752.124 112L752.364 111.04L752.604 109.36V108.52L752.964 106.72L753.204 105.88L753.444 104.2L753.564 103.24L753.804 102.52V101.68L754.044 100.84L754.284 99.04L754.524 98.56L754.764 97.6L755.004 95.44L755.364 94.36H757.044L758.364 94.48H760.044L761.004 94.72L762.204 94.96L764.484 95.8L765.804 97L766.884 99.88L766.764 101.44L766.884 103.48L766.644 105.64L766.044 107.2L765.924 108.16L765.684 109L765.084 110.32L764.964 111.28L764.244 112.36L763.404 113.08L762.324 113.92L761.484 114.28H760.644L759.804 114.64H757.524L754.524 114.28L753.444 114.64ZM815.657 131.92L818.297 131.56L819.617 131.2L820.457 131.08L822.137 130.72L823.097 130.48L823.937 130.36L826.697 129.28L827.177 128.92L828.617 127.96L830.057 126.88L830.657 126.16L831.377 125.56L832.817 124.12L833.057 123.4L833.657 122.68L834.137 121.96L835.217 120.4L835.817 119.56L836.777 117.4L837.617 115.72L837.737 114.52L838.337 113.68L838.697 112.36V111.52L839.057 110.08L839.657 108.76L839.777 107.44L840.137 106.72L840.737 105.28L840.617 104.56L841.817 100.36L842.177 99.64L842.417 97.96L842.657 97.12V96.04L843.017 93.88L843.377 93.16L843.737 91.6L843.857 90.16L844.217 88.6L844.457 87.04L844.937 85.48L844.817 84.04L845.417 82.72L845.297 81.52L845.537 79.6L845.777 78.76L845.897 76.84L846.017 75.04L846.257 73.36L846.377 72.64V71.44L846.257 70.6L846.377 69.88L846.617 69.04L846.737 67.48V66.64L846.617 65.08L846.737 64.36L846.857 62.8V61.96L846.737 61L846.497 58.72L846.137 56.92L845.897 56.08L845.657 55.36L845.297 54.64L844.577 53.08L844.217 52.24L843.617 51.52L842.297 50.32L840.977 49.24L840.377 48.52L839.417 47.92L837.257 46.48L835.457 45.64L834.737 45.4L833.777 45.28L832.817 44.92L830.897 44.68L829.577 44.56L828.857 44.44L826.697 44.32L825.257 44.44L823.577 44.56L821.417 44.92L820.217 45.04L818.417 45.52L817.697 45.64L815.897 46.12L814.457 46.84L813.017 47.68L812.177 48.28L811.217 48.64L809.657 49.72L807.977 51.52L807.377 52.24L806.537 52.84L805.577 54.28L804.617 55.84L804.137 56.56L804.017 57.4L802.937 58.96L802.457 59.8L801.737 61.24L801.137 62.92L800.657 64.36L800.297 65.2L799.577 66.76L799.337 68.32L798.737 69.16L798.257 72.16L798.017 73.84L797.897 74.56L797.537 75.4L797.297 76.84V78.52L797.057 79.36L796.337 80.56L796.457 81.28L796.217 82.12V82.84L795.977 83.68L795.617 84.4V85.24L795.257 86.68V88.24L794.897 89.68L794.537 91.84L794.297 92.68L794.057 94.24L794.297 94.84L793.817 96.52V97.36L793.577 99.04V100L793.097 101.68L792.857 104.32V105.16L792.977 106.12L792.617 107.32V109.6L792.377 110.44L792.737 112.84L792.857 113.56L792.977 115.24L793.217 115.96L793.337 116.8L793.577 117.52L793.817 118.12L793.937 118.84L794.297 119.68V120.4L795.257 121.96L795.857 122.8L796.217 123.52L796.817 124.12L797.177 124.72L798.857 126.64L801.017 128.44L802.697 129.52L803.537 130L805.337 130.48L806.297 130.6L809.057 131.44L810.137 131.56L810.977 131.68L812.537 131.56L815.657 131.92ZM814.697 115.6L813.977 115.48L813.017 115.24L812.057 114.88L811.457 114.28L810.737 113.2L810.497 112.72L810.137 111.88V108.52L809.777 107.68L810.257 106.48L810.377 105.04L810.017 104.2L810.377 103.36V102.52L810.737 100.72V99.76L810.977 98.92V97.96L811.217 96.88L811.097 96.4L811.337 95.56L811.217 94.6L811.817 92.92L812.177 92.08L812.057 91.12L812.177 90.28V89.44L812.417 87.76L812.657 86.92L813.137 85L813.497 84.04L813.737 82.24L813.977 81.4L814.097 80.56L814.457 78.64L814.817 76.96L815.297 75.28L815.417 74.56L815.777 72.88L815.897 71.92V71.68L816.617 69.16L816.857 68.2L817.097 67.36L817.817 65.8L818.297 64.96L818.777 63.52L819.617 62.2L820.817 61.12L822.737 60.4L823.697 60.16L825.977 60.04L827.897 60.88L828.737 61.96L829.217 62.68L829.697 65.08L829.457 66.76L829.337 68.32L829.097 70.48V72.04L828.857 73.12L828.497 74.8L828.257 75.76L828.137 77.32L828.257 78.16L828.017 79L827.777 79.96L827.537 81.4L827.057 83.2L827.177 85.24L826.817 85.96L826.577 88.24L826.217 89.2L825.857 90.28L825.617 93.04L825.257 94.84L824.897 95.92L825.017 96.28V97.24L824.657 97.96L824.537 98.92L824.177 100.48L823.817 101.32L823.697 103L823.337 103.96L823.097 105.64L822.857 106.48L822.497 108.28V109.24L822.257 110.08L821.537 111.76L820.697 113.44L819.017 114.64L817.937 115.12L816.257 115.6H814.697Z" fill="#000F33"/>
<defs>
<linearGradient id="paint0_linear_908_7" x1="442.296" y1="8.62" x2="442.296" y2="125.474" gradientUnits="userSpaceOnUse">
<stop stop-color="#FCFB4F"/>
<stop offset="1" stop-color="#FDBB13"/>
</linearGradient>
<linearGradient id="paint1_linear_908_7" x1="62.7877" y1="2.61748" x2="62.7877" y2="124.813" gradientUnits="userSpaceOnUse">
<stop stop-color="#14FB8B"/>
<stop offset="1" stop-color="#1390FD"/>
</linearGradient>
<linearGradient id="paint2_linear_908_7" x1="62.788" y1="2.61727" x2="62.788" y2="124.812" gradientUnits="userSpaceOnUse">
<stop stop-color="#FCFB4F"/>
<stop offset="1" stop-color="#FDBB13"/>
</linearGradient>
</defs>
</svg>
