<?xml version="1.0" encoding="utf-8"?><svg viewBox="0 0 40 40" xmlns="http://www.w3.org/2000/svg" xmlns:xlink="http://www.w3.org/1999/xlink"><style>:root>svg{display:none}:root>svg:target{display:block}</style><svg viewBox="0 0 40 40" id="clock" xmlns="http://www.w3.org/2000/svg"><g clip-path="url(#aa)"><path d="M20 0C8.972 0 0 8.972 0 20s8.972 20 20 20 20-8.972 20-20S31.028 0 20 0Zm9.512 30.345a1.662 1.662 0 0 1-2.357 0l-8.333-8.333a1.66 1.66 0 0 1-.489-1.179V10a1.666 1.666 0 1 1 3.334 0v10.143l7.845 7.845a1.665 1.665 0 0 1 0 2.357Z"/></g><defs><clipPath id="aa"><path d="M0 0h40v40H0z"/></clipPath></defs></svg><svg viewBox="0 0 40 40" id="location" xmlns="http://www.w3.org/2000/svg"><path d="M20 0C12.972 0 7.11 5.662 7.11 12.89c0 2.75.826 5.203 2.412 7.501l9.492 14.811c.46.72 1.513.719 1.973 0l9.532-14.861a12.833 12.833 0 0 0 2.372-7.45C32.89 5.783 27.108 0 20 0Zm0 18.75a5.866 5.866 0 0 1-5.86-5.86c0-3.23 2.63-5.859 5.86-5.859 3.23 0 5.86 2.629 5.86 5.86 0 3.23-2.63 5.859-5.86 5.859Z"/><path d="m29.161 26.93-5.9 9.225c-1.528 2.381-5.002 2.373-6.523.002l-5.91-9.225c-5.2 1.202-8.406 3.405-8.406 6.037C2.422 37.536 11.479 40 20 40c8.521 0 17.578-2.464 17.578-7.031 0-2.634-3.21-4.838-8.417-6.04Z"/></svg><svg viewBox="0 0 40 40" id="phone" xmlns="http://www.w3.org/2000/svg"><path d="M34.14 5.855c-7.812-7.809-20.475-7.807-28.285.005-7.809 7.811-7.807 20.475.005 28.284 7.811 7.81 20.475 7.807 28.284-.004a20 20 0 0 0-.004-28.285ZM30.289 27.86l-.003.003v-.007l-1.013 1.007a5.333 5.333 0 0 1-5.033 1.44 17.72 17.72 0 0 1-5.147-2.307 23.78 23.78 0 0 1-4.06-3.273A23.965 23.965 0 0 1 12 21.042a18.663 18.663 0 0 1-2.28-4.613 5.333 5.333 0 0 1 1.333-5.447l1.187-1.187a.847.847 0 0 1 1.2 0l3.746 3.747c.332.33.333.866.003 1.197l-.003.003-2.2 2.2a1.793 1.793 0 0 0-.186 2.333 25.72 25.72 0 0 0 2.633 3.074 25.576 25.576 0 0 0 3.467 2.913c.716.5 1.687.415 2.306-.2l2.127-2.16a.847.847 0 0 1 1.197-.003l.003.003 3.753 3.76c.332.33.333.866.003 1.197Z"/></svg></svg>